# xmcd CD database file
#
# Track frame offsets:
#	150
#	21055
#	41375
#	63995
#	85252
#	107244
#	125250
#	148443
#	162613
#	181689
#	205251
#	227154
#	246115
#	266962
#	292436
#
# Disc length: 4103 seconds
#
# Revision: 13
# Processed by: cddbd v1.5.2PL0 Copyright (c) Steve Scherf et al.
# Submitted via: CDex 1.70beta2
#
DISCID=e510050f
DTITLE=Southern All Stars - 海のYeah! (Disk II -sunny side-)
DYEAR=1900
DGENRE=Blues
TTITLE0=真夏の果実
TTITLE1=YOU
TTITLE2=シュラバ★ラ★バンバ
TTITLE3=涙のキッス
TTITLE4=さよならベイビー
TTITLE5=エロティカ・セブン
TTITLE6=素敵なバ－ディー（NO NO BIRDY）
TTITLE7=そんなひろしに騙されて
TTITLE8=マンピーのＧ★スポット
TTITLE9=あなただけを-Summer Heartbreak-
TTITLE10=MOON LIGHT LOVER
TTITLE11=太陽は罪なやつ
TTITLE12=恋のジャックナイフ
TTITLE13=愛の言霊-Spiritual Message-
TTITLE14=平和の琉歌
EXTD=
EXTT0=
EXTT1=
EXTT2=
EXTT3=
EXTT4=
EXTT5=
EXTT6=
EXTT7=
EXTT8=
EXTT9=
EXTT10=
EXTT11=
EXTT12=
EXTT13=
EXTT14=
PLAYORDER=
